<?xml version="1.0" encoding="UTF-8" standalone="no"?>
<!-- Created with Inkscape (http://www.inkscape.org/) -->

<svg
   width="1200"
   height="208"
   viewBox="0 0 666.66667 115.55556"
   version="1.1"
   id="svg497"
   inkscape:version="1.2.2 (b0a8486541, 2022-12-01)"
   sodipodi:docname="bg.svg"
   inkscape:export-filename="bg_pl.svg"
   inkscape:export-xdpi="96.5"
   inkscape:export-ydpi="96.5"
   xmlns:inkscape="http://www.inkscape.org/namespaces/inkscape"
   xmlns:sodipodi="http://sodipodi.sourceforge.net/DTD/sodipodi-0.dtd"
   xmlns="http://www.w3.org/2000/svg"
   xmlns:svg="http://www.w3.org/2000/svg">
  <sodipodi:namedview
     id="namedview499"
     pagecolor="#ffffff"
     bordercolor="#666666"
     borderopacity="1.0"
     inkscape:showpageshadow="2"
     inkscape:pageopacity="0.0"
     inkscape:pagecheckerboard="0"
     inkscape:deskcolor="#d1d1d1"
     inkscape:document-units="mm"
     showgrid="false"
     inkscape:lockguides="true"
     inkscape:zoom="1.125"
     inkscape:cx="600"
     inkscape:cy="103.55556"
     inkscape:window-width="1920"
     inkscape:window-height="1032"
     inkscape:window-x="0"
     inkscape:window-y="25"
     inkscape:window-maximized="1"
     inkscape:current-layer="layer1" />
  <defs
     id="defs494" />
  <g
     inkscape:label="Ebene 1"
     inkscape:groupmode="layer"
     id="layer1"
     transform="translate(542.59325,-50.55224)">
    <path
       style="display:inline;fill:#60c0d8;fill-opacity:1;stroke:#000000;stroke-width:0.79375;stroke-linecap:butt;stroke-linejoin:miter;stroke-dasharray:none;stroke-opacity:1"
       d="m -267.60169,88.434595 c -23.47525,-5.2812 -5.83489,-35.00988 11.06614,-19.81406"
       id="path843"
       sodipodi:nodetypes="cc" />
    <path
       style="display:inline;fill:#60c0d8;fill-opacity:1;stroke:#000000;stroke-width:0.79375;stroke-linecap:butt;stroke-linejoin:miter;stroke-dasharray:none;stroke-opacity:1"
       d="m -165.88554,83.330835 c 23.47526,-5.28121 2.16403,-33.38747 -14.73701,-18.19166"
       id="path845"
       sodipodi:nodetypes="cc" />
    <path
       style="display:inline;fill:#000000;stroke:#000000;stroke-width:0.79375;stroke-linecap:butt;stroke-linejoin:miter;stroke-dasharray:none;stroke-opacity:1"
       d="m -264.69891,80.938815 c -11.92561,-0.05468 -1.97224,-13.40626 3.26671,-5.79181 z"
       id="path847"
       sodipodi:nodetypes="ccc" />
    <path
       style="display:inline;fill:#000000;stroke:#000000;stroke-width:0.79375;stroke-linecap:butt;stroke-linejoin:miter;stroke-dasharray:none;stroke-opacity:1"
       d="m -169.04366,76.778045 c 11.92561,-0.0547 -0.0711,-14.11449 -5.31003,-6.50003 z"
       id="path849"
       sodipodi:nodetypes="ccc" />
    <path
       id="path4227"
       style="display:inline;fill:#60c0d8;fill-opacity:1;stroke:#000000;stroke-width:0.79375;stroke-linecap:butt;stroke-linejoin:miter;stroke-dasharray:none;stroke-opacity:1"
       d="m -217.32465,54.828246 c -20.09526,0.09058 -39.86459,8.724093 -47.6896,26.358597 -9.09791,20.503127 -4.39235,44.359157 -4.56974,65.261137 l 0.10438,-0.0667 -0.26872,8.43153 4.01785,-1.24489 v -2.61741 l 6.35155,1.08934 2.88613,2.80086 h 1.5844 c 0.0171,-0.84458 0.39692,-1.53537 0.26871,-2.53214 -0.10471,-0.81417 0.67788,-0.60456 1.31568,-0.90537 -0.51739,-2.80842 1.69551,1.80583 3.1688,2.71611 -0.18541,-0.61014 -0.73804,-1.18847 -0.26923,-1.85312 0.19082,-0.27056 -0.2473,-1.27679 1.1746,-0.86299 0.37089,0.0404 0.752,0.50703 1.11725,0.32504 0.99634,-0.49645 2.4741,1.28285 3.31039,1.95234 l 0.69298,-6.97425 0.80667,6.87503 1.6831,-0.0424 0.67903,-6.88951 0.63665,6.87555 1.726,-0.0429 0.46664,-6.74791 0.99063,6.73396 h 1.13172 l 1.04644,-7.76645 0.99064,7.76645 h 1.13172 l 0.70693,-6.81871 0.80667,6.81871 1.30121,-0.0708 1.00459,-6.56394 0.93379,6.63474 h 1.5844 l 0.67903,-6.56394 1.23042,6.47919 0.0568,3.52226 h 4.34289 l 0.0284,3.80546 h 3.28197 l 0.0703,-13.3687 0.0424,-7.34167 2.26342,1.47123 v 15.61765 h 3.16932 v 1.5844 h 1.81074 l 2.71611,-2.48977 0.11266,-12.33568 1.92391,0.11317 v 13.80691 h 4.7532 l 3.62149,-2.71611 3.84834,-0.33952 -0.22634,-3.62148 5.77174,-5.43223 4.07417,-0.11317 0.11317,-2.03708 1.24488,-0.11317 v 2.15025 h 10.07226 v -1.81074 h 1.13171 l 0.11317,1.92391 h 5.43223 l 3.95841,3.67058 c -1.73176,-22.15819 -1.87703,-60.658566 -6.81405,-69.602469 -9.12865,-16.537474 -29.54978,-24.989832 -49.64503,-24.899255 z"
       sodipodi:nodetypes="ssccccccccsccscscccccccccccccccccccccccccccccccccccccccccccccccccccss" />
    <path
       id="path1482"
       style="display:inline;fill:#ffffff;stroke:#000000;stroke-width:0.79375;stroke-linejoin:round;stroke-dasharray:none;stroke-opacity:1"
       d="m -221.50627,89.648485 c -1.17444,9.42586 -11.76363,14.802425 -16.85975,14.188305 -9.2445,-1.11404 -15.28135,-5.381205 -15.28135,-13.217185 0,-7.83598 7.56232,-13.67867 16.85974,-14.1883 9.34255,-0.51211 16.29798,5.05792 15.28136,13.21718 z"
       sodipodi:nodetypes="sssss" />
    <path
       id="path1485"
       style="display:inline;fill:#ffffff;stroke:#000000;stroke-width:0.79375;stroke-linejoin:round;stroke-dasharray:none;stroke-opacity:1"
       d="m -214.39091,89.648485 c 1.17444,9.42586 11.76364,14.802425 16.85975,14.188305 9.2445,-1.11404 15.28136,-5.381205 15.28136,-13.217185 0,-7.83598 -7.56233,-13.67867 -16.85975,-14.1883 -9.34255,-0.51211 -16.29798,5.05792 -15.28136,13.21718 z"
       sodipodi:nodetypes="sssss" />
    <path
       id="path1539"
       style="display:inline;stroke:#000000;stroke-width:0.79375;stroke-linejoin:round;stroke-dasharray:none;stroke-opacity:1"
       d="m -233.01187,91.800855 c 0,2.495083 -1.86254,4.51775 -4.16011,4.51775 -2.29757,0 -4.16011,-2.022667 -4.16011,-4.51775 0,-2.495079 1.86255,-4.51774 4.16011,-4.51774 2.29756,0 4.16011,2.022661 4.16011,4.51774 z"
       sodipodi:nodetypes="sssss" />
    <path
       id="path1542"
       style="display:inline;stroke:#000000;stroke-width:0.79375;stroke-linejoin:round;stroke-dasharray:none;stroke-opacity:1"
       d="m -195.9702,91.800855 c 0,2.495083 -1.86254,4.51775 -4.16011,4.51775 -2.29757,0 -4.16011,-2.022667 -4.16011,-4.51775 0,-2.495079 1.86255,-4.51774 4.16011,-4.51774 2.29756,0 4.16011,2.022661 4.16011,4.51774 z"
       sodipodi:nodetypes="sssss" />
    <path
       style="display:inline;fill:#ffeeaa;stroke:#000000;stroke-width:0.79375;stroke-linecap:butt;stroke-linejoin:miter;stroke-dasharray:none;stroke-opacity:1"
       d="m -216.34994,108.32129 c -5.38747,0.0841 -13.57193,0.74831 -16.56573,5.22816 -1.25299,1.87494 -0.13781,6.32184 1.6309,7.72078 3.78712,2.99538 7.8392,-2.2174 12.66745,-2.16762 3.77325,0.0389 9.33104,3.87677 12.38848,1.66521 2.27717,-1.64716 4.24834,-4.80695 2.72686,-7.16994 -2.05868,-3.19728 -9.04568,-5.33593 -12.84796,-5.27659 z"
       id="path1732"
       sodipodi:nodetypes="sssssss" />
    <path
       style="display:inline;fill:#ffffff;stroke:#000000;stroke-width:0.79375;stroke-linecap:butt;stroke-linejoin:miter;stroke-dasharray:none;stroke-opacity:1"
       d="m -225.44092,121.18189 c 0,0 -1.58436,6.67823 0.68979,8.86606 2.2893,2.20239 3.52705,3.42552 5.35019,0.82406 2.16786,-3.09335 1.18586,-11.39675 1.18586,-11.39675"
       id="path1734"
       sodipodi:nodetypes="cssc" />
    <path
       style="display:inline;fill:#ffffff;stroke:#000000;stroke-width:0.79375;stroke-linecap:butt;stroke-linejoin:miter;stroke-dasharray:none;stroke-opacity:1"
       d="m -218.23241,119.12498 c 0.67936,0.0923 -0.26133,9.77133 0.88124,11.80538 1.55577,2.76966 4.83548,2.08403 6.65862,-0.51743 2.16786,-3.09335 0.60213,-8.79245 0.60213,-8.79245"
       id="path1736"
       sodipodi:nodetypes="cssc" />
    <ellipse
       style="display:inline;fill:#ffffff;stroke:#000000;stroke-width:0.79375;stroke-linejoin:round;stroke-dasharray:none;stroke-opacity:1"
       id="path1926"
       cx="-236.29004"
       cy="93.115585"
       rx="1.083679"
       ry="1.3535591" />
    <ellipse
       style="display:inline;fill:#ffffff;stroke:#000000;stroke-width:0.79375;stroke-linejoin:round;stroke-dasharray:none;stroke-opacity:1"
       id="ellipse1928"
       cx="-201.18092"
       cy="93.294235"
       rx="1.083679"
       ry="1.3535591" />
    <path
       id="path1728"
       style="display:inline;stroke:#000000;stroke-width:0.79375;stroke-linejoin:round;stroke-dasharray:none;stroke-opacity:1"
       d="m -218.10394,105.13712 c 4.52394,0.10978 7.39116,1.64343 6.12099,4.56038 -0.90998,2.08979 -3.75673,3.84599 -7.52496,3.57346 -3.76822,-0.27253 -5.93033,-2.28906 -6.12098,-4.56038 -0.24598,-2.93044 3.43451,-3.67272 7.52495,-3.57346 z"
       sodipodi:nodetypes="sssss" />
    <path
       style="display:inline;fill:none;stroke:#000000;stroke-width:0.79375;stroke-dasharray:none;stroke-opacity:1"
       d="m -541.11999,163.0594 1.47119,-3.28199 c -0.3368,-1.2668 3.74233,-0.51104 6.21029,-2.17856 -1.27942,-2.81806 0.29513,-2.42193 2.39076,-1.44298 0.18175,-0.8807 1.53256,-0.82616 3.84784,0 l 2.94247,-5.88494 13.12793,-1.35806 2.48978,5.2059 v 2.26344 h 1.58441 c -0.45162,-3.00893 2.32111,-5.72351 3.1688,-2.94246 1.29953,-0.27238 0.81824,-1.65775 5.20591,0 l 2.26344,-3.84784 7.24299,0.22634 2.26344,3.84784 c 0.58249,1.09767 -0.21606,4.36145 1.66928,3.02738 1.26276,-0.89356 2.04744,2.77412 1.49952,-1.66932 -1.8909,-1.55037 0.85221,-4.02217 3.0698,-6.3942 0.48325,-7.67066 6.34873,-5.93248 9.86008,-8.30397 l -0.0282,-14.50018 0.74977,-8.37471 1.62685,8.37471 h 3.73467 l 4.30052,-9.50643 1.47124,-16.29674 1.47123,16.40992 22.18166,0.33952 -0.11309,-8.37471 -1.59855,0.0426 10.53914,-9.775197 2.94246,-10.255747 2.94247,10.029407 8.82739,10.425977 -1.71172,-0.0286 -0.36782,24.431 7.93618,-7.1723 28.06662,0.21223 0.31122,-9.77524 -1.69758,-0.0281 7.34201,-8.47376 10.01572,-56.296763 0.0992,0.758511 7.72384,59.074882 5.77177,5.44641 -1.89562,-0.0137 v 26.9349 c 0.74807,-0.0614 1.39914,1.462 2.17854,0.0426 0.63009,-1.14757 2.4782,0.73353 3.45174,1.99467 0.5499,-1.22199 2.01881,-1.15735 3.62151,-0.90538 0.57296,0.77902 0.24483,1.62139 0.58001,2.33419 0.5314,1.13001 -0.42678,1.46277 -0.80635,2.19269 0.49682,0.46748 0.42624,1.4251 2.30587,0.70732 1.83093,-0.39582 2.80567,0.23019 3.57905,1.10342 1.08522,0.10266 2.0395,0.42353 2.48979,1.58441 -0.54323,-1.51501 1.46792,-2.00826 2.94246,-2.71613 -1.65587,-0.69668 -1.33916,-1.8317 -1.13172,-2.94246 0.6072,-0.70207 -0.1225,-1.68749 -0.7922,-2.81514 l 0.33952,-1.25905 c 0.72905,0.17709 0.72102,-1.80383 2.19269,-0.22634 0.003,0.65223 0.87411,0.81039 0.66489,1.89563 -0.35238,1.82795 1.01427,3.49578 1.65514,3.05564 0.25108,-0.1724 -0.96063,-1.38545 0.0849,-3.28198 0.35584,-0.64549 0.19233,-1.61144 1.03269,-2.82931 0.57573,-0.83429 1.97357,0.34695 2.97076,0.48098 0.77263,1.21462 1.59032,2.41618 1.11757,4.04591 0.0474,0.9319 -0.15638,1.98716 0.69318,2.51806 -0.11532,0.85263 -1.43894,1.98386 0.99026,2.24928 l 0.59416,1.37222 c 0.28644,0.65001 -0.83821,1.44928 1.34391,1.90974 0.0224,1.43807 1.72186,0.77066 3.40929,0.1273 l 3.97516,-3.84785 -0.0282,-12.44889 h 2.16441 l -0.12729,14.10406 3.15467,3.80538 7.10153,-11.33131 8.77081,11.11908 4.86638,-5.02196 3.97516,1.44293 0.33952,-2.24931 5.96981,-3.64974 0.0137,3.06976 4.87249,-3.25104 m 108.69503,3.02297 2.32021,2.0949 0.22634,3.84784 7.46933,0.22634 3.16881,1.81079 c -0.0797,-4.57345 0.15518,-5.68729 0.67904,-3.62153 0.65814,0.90536 1.6767,1.81074 0.90538,2.71612 h 2.26342 c -0.67832,-0.75451 -0.0284,-1.50895 0.4527,-2.26344 0.0594,-3.25066 2.24139,-0.66419 3.39514,-0.90538 0.0933,-1.95434 2.85264,4.65041 3.64979,1.9805 0.40987,-1.37272 2.11522,1.46472 3.36686,1.64104 l 1.90978,0.97609 0.0137,-8.10596 -1.76831,0.0849 10.82206,-13.43916 8.37471,0.11309 1.69757,-8.8274 1.35806,7.35616 8.60107,1.47124 0.11309,-2.8293 h -1.1317 l 1.1317,-2.37662 1.13172,-10.86449 1.358061,9.16693 4.074189,-5.20591 3.847844,-9.84595 2.037101,-26.708547 2.263424,27.048067 11.430354,21.38948 -1.810743,-0.11326 -0.113265,7.35617 3.847844,4.86638 -0.09906,11.76991 c 0.0953,-0.7922 0.486318,-1.5844 1.79661,-2.3766 1.231264,0.20227 2.6579,-1.25435 3.621487,1.08925 1.02441,-0.42096 1.320386,-1.53121 2.928331,-0.0566 0.677928,0.62176 1.697137,0.9157 2.503915,1.68345 0.46755,0.85417 1.399484,1.52257 0.452699,2.94246 l 3.847844,-0.22634 1.471223,-17.08897 3.395163,16.97579 c 0.93912,-0.94707 0.50916,-3.26323 3.055626,-2.60294 0.947555,-1.97712 2.298362,-1.938 3.847844,-0.90538 1.161046,0.87546 2.469884,1.70865 1.584402,3.16882 1.131738,-1.76838 2.263442,-1.02234 3.395163,-0.4527 2.404492,-0.93487 1.708309,0.7141 2.489782,1.13172 0.967642,-0.68377 1.440495,-0.13054 1.810744,0.67904 2.095581,-1.33795 3.315894,-0.34193 4.526866,0.67903 -0.287593,-0.98318 -0.526389,-2.35175 0.90538,-3.62151 l 1.584403,0.90538 0.452698,1.13172 c 0.666881,-0.7593 1.450971,-1.10829 2.716131,0.22634 1.06999,-0.21171 1.43414,0.13517 1.54195,0.69318 0.10112,-1.2583 1.36189,-0.93322 3.21125,0.2122 l 1.65514,-1.27318 0.0424,-6.53567 5.88492,-8.03524 0.22635,-7.69569 1.01854,-5.2059 0.90538,5.2059 v 6.79031 l 12.56207074,0.90538 0.15553,-10.89279 0.74975004,-5.17762 0.79220002,5.31908 4.3005399,-7.69569 2.71613,-21.61582 2.0370803,21.2763 3.168809,8.60107 1.01855,-5.54542 0.90537,5.43226 0.11326,18.67338 6.79031,0.33952 3.39515,3.961 v 4.86641 c 1.35807,-1.0806 2.71612,-1.14507 4.07418,-0.1131 l 1.55612,-1.16002 -0.0707,-13.92017 0.26877,-3.36684 0.50928,3.50832 2.94246,-2.26344 0.62245,-10.75132 0.73562,10.69474 3.11222,2.48976 0.90538,-3.50832 0.4244,3.26787 0.0282,13.31184 c 0.72927,-1.26892 0.10266,-3.2774 2.32002,-3.73466 1.15398,-0.54169 2.08879,-0.20679 2.94247,0.45268 0.0553,-1.54298 1.51251,-2.03442 2.71612,-2.71613 2.96517,-1.94763 3.79202,0.11412 5.6586,0.22634 1.57046,-0.027 2.49995,1.01417 3.16881,2.48979 -0.0696,-1.02919 1.17795,-1.12887 3.33856,-1.41465 l 0.1131,-6.90352 -1.2449,0.0566 3.45174,-14.31622 0.7922,-12.39234 1.01854,12.44892 2.48979,13.69377 1.75416,1.58442 H 72.27 l 0.4527,-3.16882 0.28292,3.05565 1.75422,6.67718 c 1.14589,-0.33468 2.19353,-0.96414 3.6215,-0.4527 1.66299,-0.56766 3.22462,-0.90379 3.84783,0.90538 1.49943,-1.07487 2.16752,0.17794 2.94248,1.13172 -0.52776,-1.67462 0.67283,-1.96661 1.5844,-2.48978 2.62586,-0.53064 1.85588,1.0285 2.71612,1.5844 0.50035,-0.0772 0.8147,-1.17761 1.58441,0.22634 0.32662,-1.00658 0.88134,-1.55696 1.81074,-1.35806 1.23263,-2.14722 1.90904,-2.44012 2.71612,-3.16881 0.56872,-1.16096 1.31964,-1.77498 2.48979,-1.13175 2.14297,-0.57423 4.32678,-1.26056 5.88492,-0.22634 0.30371,-0.73331 0.0448,-1.76667 2.48979,-1.35806 2.12066,-0.0303 4.25164,-0.0726 4.75322,1.81074 2.34382,-0.91524 3.987,-0.42938 5.43225,0.45268 1.03977,1.09088 2.877,1.96906 1.81074,3.62154 0.60357,0.90538 2.8857,0.34205 1.81074,2.71612 0.20489,0.9152 1.7286,2.07017 0.4527,2.71612"
       id="path3111"
       sodipodi:nodetypes="cccccccccccccsccccccccccccccccccccccccccccccsccscccccccccssssccccccccccccccccccccccccccccccscccccccccccccccccccccccccscccccccccccccccccccccccccccccccccccccccccccccccccccccccccccccccccccccccccccccccccccccc" />
  </g>
</svg>
